<mxfile host="app.diagrams.net" modified="2023-04-03T22:43:06.920Z" agent="Mozilla/5.0 (X11; Linux x86_64) AppleWebKit/537.36 (KHTML, like Gecko) Chrome/109.0.0.0 Safari/537.36" etag="pc5p-2R-zm4lkHEI_pPR" version="21.1.4" type="github">
  <diagram name="PÃ¡gina-1" id="oSTfT7jeTgy9XI2y8ly9">
    <mxGraphModel dx="1434" dy="758" grid="1" gridSize="10" guides="1" tooltips="1" connect="1" arrows="1" fold="1" page="1" pageScale="1" pageWidth="827" pageHeight="1169" math="0" shadow="0">
      <root>
        <mxCell id="0" />
        <mxCell id="1" parent="0" />
        <mxCell id="7lOAJV98NajSsg_C-_sm-3" style="edgeStyle=orthogonalEdgeStyle;rounded=0;orthogonalLoop=1;jettySize=auto;html=1;entryX=0.5;entryY=0;entryDx=0;entryDy=0;" parent="1" source="H7Jf5DhdHRIc8OerrFZY-1" target="H7Jf5DhdHRIc8OerrFZY-6" edge="1">
          <mxGeometry relative="1" as="geometry" />
        </mxCell>
        <mxCell id="H7Jf5DhdHRIc8OerrFZY-1" value="+ Funcionario" style="swimlane;fontStyle=1;align=center;verticalAlign=top;childLayout=stackLayout;horizontal=1;startSize=26;horizontalStack=0;resizeParent=1;resizeParentMax=0;resizeLast=0;collapsible=1;marginBottom=0;whiteSpace=wrap;html=1;" parent="1" vertex="1">
          <mxGeometry y="20" width="500" height="210" as="geometry">
            <mxRectangle x="70" y="90" width="120" height="30" as="alternateBounds" />
          </mxGeometry>
        </mxCell>
        <mxCell id="H7Jf5DhdHRIc8OerrFZY-2" value="- cpf : String&lt;br&gt;- nome : String&lt;br&gt;- salario : float&lt;br&gt;- identidade: String&lt;br&gt;- filhos [0..*] : Filho&amp;nbsp;" style="text;strokeColor=none;fillColor=none;align=left;verticalAlign=top;spacingLeft=4;spacingRight=4;overflow=hidden;rotatable=0;points=[[0,0.5],[1,0.5]];portConstraint=eastwest;whiteSpace=wrap;html=1;" parent="H7Jf5DhdHRIc8OerrFZY-1" vertex="1">
          <mxGeometry y="26" width="500" height="94" as="geometry" />
        </mxCell>
        <mxCell id="H7Jf5DhdHRIc8OerrFZY-3" value="" style="line;strokeWidth=1;fillColor=none;align=left;verticalAlign=middle;spacingTop=-1;spacingLeft=3;spacingRight=3;rotatable=0;labelPosition=right;points=[];portConstraint=eastwest;strokeColor=inherit;" parent="H7Jf5DhdHRIc8OerrFZY-1" vertex="1">
          <mxGeometry y="120" width="500" height="8" as="geometry" />
        </mxCell>
        <mxCell id="H7Jf5DhdHRIc8OerrFZY-4" value="+ Funcionario()&lt;br&gt;+ Funcionario(cpf : String, nome: String, salario: float, identidade: String, filhos[10]: Filho)" style="text;strokeColor=none;fillColor=none;align=left;verticalAlign=top;spacingLeft=4;spacingRight=4;overflow=hidden;rotatable=0;points=[[0,0.5],[1,0.5]];portConstraint=eastwest;whiteSpace=wrap;html=1;" parent="H7Jf5DhdHRIc8OerrFZY-1" vertex="1">
          <mxGeometry y="128" width="500" height="82" as="geometry" />
        </mxCell>
        <mxCell id="H7Jf5DhdHRIc8OerrFZY-6" value="+ Filho" style="swimlane;fontStyle=1;align=center;verticalAlign=top;childLayout=stackLayout;horizontal=1;startSize=26;horizontalStack=0;resizeParent=1;resizeParentMax=0;resizeLast=0;collapsible=1;marginBottom=0;whiteSpace=wrap;html=1;" parent="1" vertex="1">
          <mxGeometry y="290" width="500" height="200" as="geometry">
            <mxRectangle x="70" y="320" width="80" height="30" as="alternateBounds" />
          </mxGeometry>
        </mxCell>
        <mxCell id="H7Jf5DhdHRIc8OerrFZY-7" value="- cpf : String&lt;br&gt;- nome : String&lt;br&gt;- numCertNasc: String&lt;br&gt;- dataNascimento: String&amp;nbsp;" style="text;strokeColor=none;fillColor=none;align=left;verticalAlign=top;spacingLeft=4;spacingRight=4;overflow=hidden;rotatable=0;points=[[0,0.5],[1,0.5]];portConstraint=eastwest;whiteSpace=wrap;html=1;" parent="H7Jf5DhdHRIc8OerrFZY-6" vertex="1">
          <mxGeometry y="26" width="500" height="84" as="geometry" />
        </mxCell>
        <mxCell id="H7Jf5DhdHRIc8OerrFZY-8" value="" style="line;strokeWidth=1;fillColor=none;align=left;verticalAlign=middle;spacingTop=-1;spacingLeft=3;spacingRight=3;rotatable=0;labelPosition=right;points=[];portConstraint=eastwest;strokeColor=inherit;" parent="H7Jf5DhdHRIc8OerrFZY-6" vertex="1">
          <mxGeometry y="110" width="500" height="8" as="geometry" />
        </mxCell>
        <mxCell id="H7Jf5DhdHRIc8OerrFZY-9" value="+ Filho()&lt;br&gt;+ Filho(cpf : String, nome: String, numCertNasc: String, dataNascimento: String)&lt;br&gt;" style="text;strokeColor=none;fillColor=none;align=left;verticalAlign=top;spacingLeft=4;spacingRight=4;overflow=hidden;rotatable=0;points=[[0,0.5],[1,0.5]];portConstraint=eastwest;whiteSpace=wrap;html=1;" parent="H7Jf5DhdHRIc8OerrFZY-6" vertex="1">
          <mxGeometry y="118" width="500" height="82" as="geometry" />
        </mxCell>
        <mxCell id="H7Jf5DhdHRIc8OerrFZY-10" value="+ FicharioFilhos" style="swimlane;fontStyle=1;align=center;verticalAlign=top;childLayout=stackLayout;horizontal=1;startSize=26;horizontalStack=0;resizeParent=1;resizeParentMax=0;resizeLast=0;collapsible=1;marginBottom=0;whiteSpace=wrap;html=1;" parent="1" vertex="1">
          <mxGeometry y="520" width="240" height="298" as="geometry">
            <mxRectangle x="80" y="560" width="130" height="30" as="alternateBounds" />
          </mxGeometry>
        </mxCell>
        <mxCell id="H7Jf5DhdHRIc8OerrFZY-11" value="- posFunc : int&lt;br&gt;- cont : int&lt;br&gt;- funcs [ ] : Funcionario&lt;br&gt;- pos : int&lt;br&gt;- resp : int&amp;nbsp;&lt;br&gt;- sc : Scanner;" style="text;strokeColor=none;fillColor=none;align=left;verticalAlign=top;spacingLeft=4;spacingRight=4;overflow=hidden;rotatable=0;points=[[0,0.5],[1,0.5]];portConstraint=eastwest;whiteSpace=wrap;html=1;" parent="H7Jf5DhdHRIc8OerrFZY-10" vertex="1">
          <mxGeometry y="26" width="240" height="114" as="geometry" />
        </mxCell>
        <mxCell id="H7Jf5DhdHRIc8OerrFZY-12" value="" style="line;strokeWidth=1;fillColor=none;align=left;verticalAlign=middle;spacingTop=-1;spacingLeft=3;spacingRight=3;rotatable=0;labelPosition=right;points=[];portConstraint=eastwest;strokeColor=inherit;" parent="H7Jf5DhdHRIc8OerrFZY-10" vertex="1">
          <mxGeometry y="140" width="240" height="8" as="geometry" />
        </mxCell>
        <mxCell id="H7Jf5DhdHRIc8OerrFZY-13" value="+ FicharioFilho( f [ ] : Funcionario)&lt;br&gt;+ inserir( ) : void&lt;br&gt;+ excluir( ) : void&lt;br&gt;+ alterar( ) : void&lt;br&gt;+ consultar( ) : void&lt;br&gt;+ relatorio( ) : void&lt;br&gt;+ imprimir ( f: Filho) : void" style="text;strokeColor=none;fillColor=none;align=left;verticalAlign=top;spacingLeft=4;spacingRight=4;overflow=hidden;rotatable=0;points=[[0,0.5],[1,0.5]];portConstraint=eastwest;whiteSpace=wrap;html=1;" parent="H7Jf5DhdHRIc8OerrFZY-10" vertex="1">
          <mxGeometry y="148" width="240" height="150" as="geometry" />
        </mxCell>
        <mxCell id="H7Jf5DhdHRIc8OerrFZY-14" value="+ FicharioFuncionario" style="swimlane;fontStyle=1;align=center;verticalAlign=top;childLayout=stackLayout;horizontal=1;startSize=26;horizontalStack=0;resizeParent=1;resizeParentMax=0;resizeLast=0;collapsible=1;marginBottom=0;whiteSpace=wrap;html=1;" parent="1" vertex="1">
          <mxGeometry x="280" y="520" width="280" height="300" as="geometry" />
        </mxCell>
        <mxCell id="H7Jf5DhdHRIc8OerrFZY-15" value="- func[ ] : Funcionario&lt;br&gt;- cont : int&lt;br&gt;- sc : Scanner&lt;br&gt;- pos : int&lt;br&gt;- resp : int&lt;br&gt;&lt;br&gt;" style="text;strokeColor=none;fillColor=none;align=left;verticalAlign=top;spacingLeft=4;spacingRight=4;overflow=hidden;rotatable=0;points=[[0,0.5],[1,0.5]];portConstraint=eastwest;whiteSpace=wrap;html=1;" parent="H7Jf5DhdHRIc8OerrFZY-14" vertex="1">
          <mxGeometry y="26" width="280" height="94" as="geometry" />
        </mxCell>
        <mxCell id="H7Jf5DhdHRIc8OerrFZY-16" value="" style="line;strokeWidth=1;fillColor=none;align=left;verticalAlign=middle;spacingTop=-1;spacingLeft=3;spacingRight=3;rotatable=0;labelPosition=right;points=[];portConstraint=eastwest;strokeColor=inherit;" parent="H7Jf5DhdHRIc8OerrFZY-14" vertex="1">
          <mxGeometry y="120" width="280" height="8" as="geometry" />
        </mxCell>
        <mxCell id="H7Jf5DhdHRIc8OerrFZY-17" value="+ FicharioFuncionario(f [ ] : Funcionario)&lt;br&gt;+ inserir ( ) : void&lt;br&gt;+ excluir ( ) : void&lt;br&gt;+ alterar ( ) : void&lt;br&gt;+ consultar ( ) : void&lt;br&gt;+ relatorio ( ) : void&lt;br&gt;+ relatorioComFilhos ( ) : void&lt;br&gt;+ imprime (f : Funcionario) : void&lt;br&gt;+ imprimeComFilhos ( f : Funcionario) : void&lt;br&gt;+ imprimirFilho( f : Filho ) : void&lt;br&gt;&amp;nbsp;" style="text;strokeColor=none;fillColor=none;align=left;verticalAlign=top;spacingLeft=4;spacingRight=4;overflow=hidden;rotatable=0;points=[[0,0.5],[1,0.5]];portConstraint=eastwest;whiteSpace=wrap;html=1;" parent="H7Jf5DhdHRIc8OerrFZY-14" vertex="1">
          <mxGeometry y="128" width="280" height="172" as="geometry" />
        </mxCell>
      </root>
    </mxGraphModel>
  </diagram>
</mxfile>
